<?xml version="1.0" encoding="UTF-8"?>
<svg width="712px" height="589px" viewBox="0 0 712 589" version="1.1" xmlns="http://www.w3.org/2000/svg" xmlns:xlink="http://www.w3.org/1999/xlink">
    <!-- Generator: Sketch 63.1 (92452) - https://sketch.com -->
    <title>Illo</title>
    <desc>Created with Sketch.</desc>
    <defs>
        <path d="M2.96024307,142.194109 C-18.0742385,241.375538 90.4979109,314.06442 55.0285353,472.799885 L55.0285353,472.799885 L608.626106,472.799885 C655.818154,403.281013 683.576401,235.261407 678.147414,157.13909 L678.147414,157.13909 C672.719943,79.0167724 604.859889,53.2034038 471.861088,87.1684423 L471.861088,87.1684423 C338.857744,121.134997 295.428884,35.5401891 189.909687,7.00858654 L189.909687,7.00858654 C172.868577,2.40138462 157.011698,0.221338954 142.30119,0.221338954 L142.30119,0.221338954 C65.918309,0.221338954 20.5995261,59.0294904 2.96024307,142.194109" id="path-1"></path>
        <path d="M1.79248235,15.7302206 C0.591458824,19.1686029 0.00905294118,22.3918971 0,25.4303971 L0,25.4303971 L0,25.5515735 C0.0316852941,39.5429118 12.2607,49.5869265 32.2164,58.4918824 L32.2164,58.4918824 C56.5567412,69.3492941 48.4437971,81.9077206 51.1461,102.609206 L51.1461,102.609206 L75.48795,74.4417353 C76.8383471,46.9513382 68.3889353,27.9463235 56.2187647,11.6586912 L56.2187647,11.6586912 C50.5682206,4.09576471 39.8917853,0.263558824 29.3964088,0.263558824 L29.3964088,0.263558824 C17.2850824,0.265073529 5.41516765,5.36811765 1.79248235,15.7302206" id="path-3"></path>
        <linearGradient x1="72.6381748%" y1="89.7940879%" x2="34.9604407%" y2="1.13709197%" id="linearGradient-5">
            <stop stop-color="#14BCA3" offset="0%"></stop>
            <stop stop-color="#148275" offset="100%"></stop>
        </linearGradient>
        <path d="M1.17639448,10.791 C-2.54298447,25.1231538 5.87845026,30.8392615 27.8958453,42.1846615 L27.8958453,42.1846615 C49.9117309,53.5300615 51.9072743,98.4897692 51.9072743,98.4897692 L51.9072743,98.4897692 L69.8324468,77.3327077 C69.8324468,47.9845385 61.0381685,29.5568308 48.1878953,13.5188308 L48.1878953,13.5188308 C41.3634991,5.00483077 29.5864721,0.721938462 19.478939,0.721938462 L19.478939,0.721938462 C10.5488068,0.723461538 2.92287234,4.06813846 1.17639448,10.791" id="path-6"></path>
        <linearGradient x1="57.3051716%" y1="101.23376%" x2="44.4810528%" y2="-1.98955586%" id="linearGradient-8">
            <stop stop-color="#14BCA3" offset="0%"></stop>
            <stop stop-color="#148275" offset="100%"></stop>
        </linearGradient>
        <path d="M17.2923742,0.781079044 C-2.35605545,4.51964185 -3.37370923,48.0143696 7.12944548,76.2196648 L7.12944548,76.2196648 C17.6310881,104.423443 22.3745946,130.5858 22.3745946,130.5858 L22.3745946,130.5858 L51.5115494,113.937441 C59.6406827,89.1309772 51.8502633,72.8193168 41.3471086,53.1118583 L41.3471086,53.1118583 C31.3505126,34.3523113 36.3949301,0.51111386 19.9612582,0.514147176 L19.9612582,0.514147176 C19.1295946,0.514147176 18.2404706,0.60211336 17.2923742,0.781079044" id="path-9"></path>
        <linearGradient x1="49.9997066%" y1="100.000718%" x2="49.9997066%" y2="2.30871482e-05%" id="linearGradient-11">
            <stop stop-color="#14BCA3" offset="0%"></stop>
            <stop stop-color="#148275" offset="100%"></stop>
        </linearGradient>
        <path d="M4.026,28.5953752 C-4.0395,55.357269 4.866,84.7668548 4.866,84.7668548 L4.866,84.7668548 L41.1615,67.3683821 C32.928,37.6406511 57.4605,17.3713324 48.3885,5.37831287 L48.3885,5.37831287 C45.684,1.80483333 41.3685,0.0467417154 36.4275,0.0467417154 L36.4275,0.0467417154 C24.7905,0.0482495127 9.6885,9.80822125 4.026,28.5953752" id="path-12"></path>
        <linearGradient x1="43.0687945%" y1="102.23463%" x2="53.7626255%" y2="-1.50262245%" id="linearGradient-14">
            <stop stop-color="#14BCA3" offset="0%"></stop>
            <stop stop-color="#148275" offset="100%"></stop>
        </linearGradient>
        <path d="M1.1461836,11.7399732 C-1.78883271,26.9079107 23.0537139,39.9404687 28.6999534,49.1188542 L28.6999534,49.1188542 L54.6750746,52.9250744 C54.6750746,52.9250744 54.4482572,35.0178571 43.1557782,14.8733616 L43.1557782,14.8733616 C37.4052027,4.61604762 27.3813886,0.0605714286 18.5385368,0.0605714286 L18.5385368,0.0605714286 C10.0147414,0.0605714286 2.58722973,4.29536607 1.1461836,11.7399732" id="path-15"></path>
        <linearGradient x1="58.0252215%" y1="105.541426%" x2="38.9122122%" y2="-0.0718167757%" id="linearGradient-17">
            <stop stop-color="#14BCA3" offset="0%"></stop>
            <stop stop-color="#148275" offset="100%"></stop>
        </linearGradient>
        <path d="M3.90059233,15.1075653 C-4.74758608,34.476729 3.44502409,66.0062778 10.5009991,80.1946501 L10.5009991,80.1946501 L55.7896628,84.9246101 C30.5277181,63.5274591 35.5343979,38.9805195 37.1281249,16.6847212 L37.1281249,16.6847212 C37.926512,5.50591228 31.7481534,0.270840156 24.2945085,0.272347628 L24.2945085,0.272347628 C16.8835254,0.272347628 8.21249242,5.45163158 3.90059233,15.1075653" id="path-18"></path>
        <linearGradient x1="49.9995004%" y1="99.9987851%" x2="49.9995004%" y2="-0.000768900928%" id="linearGradient-20">
            <stop stop-color="#14BCA3" offset="0%"></stop>
            <stop stop-color="#148275" offset="100%"></stop>
        </linearGradient>
        <path d="M33.5657959,19.2214286 C15.7453878,32.1598052 5.1437551,39.6508442 1.49359184,62.1194026 L1.49359184,62.1194026 C-2.15808163,84.587961 9.20318367,99.1141948 20.7079184,114.090195 L20.7079184,114.090195 L57.926898,116.133896 C57.926898,116.133896 38.0767755,79.367026 41.1228571,58.9421688 L41.1228571,58.9421688 C44.1674286,38.5142727 77.7770204,14.6827403 73.0410204,4.01750649 L73.0410204,4.01750649 C71.8102041,1.24749351 69.7593469,0.0683766234 67.0832653,0.0683766234 L67.0832653,0.0683766234 C59.4552245,0.0698961039 46.7574286,9.64566234 33.5657959,19.2214286" id="path-21"></path>
        <linearGradient x1="50.0001417%" y1="100.00041%" x2="50.0001417%" y2="0.000447077306%" id="linearGradient-23">
            <stop stop-color="#14BCA3" offset="0%"></stop>
            <stop stop-color="#148275" offset="100%"></stop>
        </linearGradient>
        <path d="M16.1325,9.03865263 C-6.885,28.5104842 1.956,61.1120842 5.0925,79.6774737 L5.0925,79.6774737 L34.6035,89.9257263 C34.6035,89.9257263 26.217,73.3111579 32.4285,53.3876211 L32.4285,53.3876211 C38.64,33.4625684 63.7935,37.7916632 68.0505,21.7167158 L68.0505,21.7167158 C70.9125,10.9061053 56.856,0.0970105263 40.3395,0.0970105263 L40.3395,0.0970105263 C32.2965,0.0970105263 23.67,2.66172632 16.1325,9.03865263" id="path-24"></path>
        <linearGradient x1="41.5060016%" y1="97.9901424%" x2="54.477636%" y2="-0.742773784%" id="linearGradient-26">
            <stop stop-color="#14BCA3" offset="0%"></stop>
            <stop stop-color="#148275" offset="100%"></stop>
        </linearGradient>
        <polygon id="path-27" points="0 593.435017 735.712263 593.435017 735.712263 0.825056337 0 0.825056337"></polygon>
        <path d="M0.47205668,0.460526376 C0.47205668,0.460526376 3.39939824,2.87665466 6.31765339,4.54947531 L6.31765339,4.54947531 L4.13388384,9.25608109 L3.82517577,9.04395734" id="path-29"></path>
        <path d="M18.9800165,0.266440212 C18.6710782,-0.405715777 25.9114403,2.85969068 36.3153909,7.86906943 C42.6789136,28.2426624 44.1736296,55.240928 41.7505844,76.174651 C40.3103868,88.6231615 40.1438025,99.8923714 40.566321,109.437289 L40.566321,109.437289 C10.5175309,102.125322 0.695111111,51.7544973 0.920757202,24.5745679" id="path-31"></path>
    </defs>
    <g id="Login/Signup" stroke="none" stroke-width="1" fill="none" fill-rule="evenodd">
        <g id="Sign-Up-(Desktop)" transform="translate(-171.000000, -211.000000)">
            <g id="Illo" transform="translate(171.000000, 208.000000)">
                <g>
                    <g id="Group-3" transform="translate(10.000000, 119.000000)">
                        <mask id="mask-2" fill="white">
                            <use xlink:href="#path-1"></use>
                        </mask>
                        <g id="Clip-2"></g>
                        <path d="M2.96024307,142.194109 C-18.0742385,241.375538 90.4979109,314.06442 55.0285353,472.799885 L55.0285353,472.799885 L608.626106,472.799885 C655.818154,403.281013 683.576401,235.261407 678.147414,157.13909 L678.147414,157.13909 C672.719943,79.0167724 604.859889,53.2034038 471.861088,87.1684423 L471.861088,87.1684423 C338.857744,121.134997 295.428884,35.5401891 189.909687,7.00858654 L189.909687,7.00858654 C172.868577,2.40138462 157.011698,0.221338954 142.30119,0.221338954 L142.30119,0.221338954 C65.918309,0.221338954 20.5995261,59.0294904 2.96024307,142.194109" id="Fill-1" mask="url(#mask-2)"></path>
                    </g>
                    <g id="Group-6" transform="translate(0.000000, 356.000000)">
                        <mask id="mask-4" fill="white">
                            <use xlink:href="#path-3"></use>
                        </mask>
                        <g id="Clip-5"></g>
                        <path d="M1.79248235,15.7302206 C0.591458824,19.1686029 0.00905294118,22.3918971 0,25.4303971 L0,25.4303971 L0,25.5515735 C0.0316852941,39.5429118 12.2607,49.5869265 32.2164,58.4918824 L32.2164,58.4918824 C56.5567412,69.3492941 48.4437971,81.9077206 51.1461,102.609206 L51.1461,102.609206 L75.48795,74.4417353 C76.8383471,46.9513382 68.3889353,27.9463235 56.2187647,11.6586912 L56.2187647,11.6586912 C50.5682206,4.09576471 39.8917853,0.263558824 29.3964088,0.263558824 L29.3964088,0.263558824 C17.2850824,0.265073529 5.41516765,5.36811765 1.79248235,15.7302206" id="Fill-4" fill="url(#linearGradient-5)" mask="url(#mask-4)"></path>
                    </g>
                    <path d="M20,379 C20,379 62.4034966,378.545849 64,438" id="Stroke-7" stroke="#1DCEB4" stroke-width="1.093" stroke-linecap="round"></path>
                    <g id="Group-11" transform="translate(21.000000, 325.000000)">
                        <mask id="mask-7" fill="white">
                            <use xlink:href="#path-6"></use>
                        </mask>
                        <g id="Clip-10"></g>
                        <path d="M1.17639448,10.791 C-2.54298447,25.1231538 5.87845026,30.8392615 27.8958453,42.1846615 L27.8958453,42.1846615 C49.9117309,53.5300615 51.9072743,98.4897692 51.9072743,98.4897692 L51.9072743,98.4897692 L69.8324468,77.3327077 C69.8324468,47.9845385 61.0381685,29.5568308 48.1878953,13.5188308 L48.1878953,13.5188308 C41.3634991,5.00483077 29.5864721,0.721938462 19.478939,0.721938462 L19.478939,0.721938462 C10.5488068,0.723461538 2.92287234,4.06813846 1.17639448,10.791" id="Fill-9" fill="url(#linearGradient-8)" mask="url(#mask-7)"></path>
                    </g>
                    <path d="M32,338 C32,338 73.5812297,338.598629 81,407" id="Stroke-12" stroke="#1DCEB4" stroke-width="1.093" stroke-linecap="round"></path>
                    <g id="Group-16" transform="translate(64.000000, 270.000000)">
                        <mask id="mask-10" fill="white">
                            <use xlink:href="#path-9"></use>
                        </mask>
                        <g id="Clip-15"></g>
                        <path d="M17.2923742,0.781079044 C-2.35605545,4.51964185 -3.37370923,48.0143696 7.12944548,76.2196648 L7.12944548,76.2196648 C17.6310881,104.423443 22.3745946,130.5858 22.3745946,130.5858 L22.3745946,130.5858 L51.5115494,113.937441 C59.6406827,89.1309772 51.8502633,72.8193168 41.3471086,53.1118583 L41.3471086,53.1118583 C31.3505126,34.3523113 36.3949301,0.51111386 19.9612582,0.514147176 L19.9612582,0.514147176 C19.1295946,0.514147176 18.2404706,0.60211336 17.2923742,0.781079044" id="Fill-14" fill="url(#linearGradient-11)" mask="url(#mask-10)"></path>
                    </g>
                    <path d="M82.5219668,280 C74.6857869,322.840131 99.5373291,326.672798 102,388" id="Stroke-17" stroke="#1DCEB4" stroke-width="1.093" stroke-linecap="round"></path>
                    <g id="Group-21" transform="translate(111.000000, 297.000000)">
                        <mask id="mask-13" fill="white">
                            <use xlink:href="#path-12"></use>
                        </mask>
                        <g id="Clip-20"></g>
                        <path d="M4.026,28.5953752 C-4.0395,55.357269 4.866,84.7668548 4.866,84.7668548 L4.866,84.7668548 L41.1615,67.3683821 C32.928,37.6406511 57.4605,17.3713324 48.3885,5.37831287 L48.3885,5.37831287 C45.684,1.80483333 41.3685,0.0467417154 36.4275,0.0467417154 L36.4275,0.0467417154 C24.7905,0.0482495127 9.6885,9.80822125 4.026,28.5953752" id="Fill-19" fill="url(#linearGradient-14)" mask="url(#mask-13)"></path>
                    </g>
                    <path d="M149,306 C149,306 119.751874,330.021746 131.995135,369" id="Stroke-22" stroke="#1DCEB4" stroke-width="1.093" stroke-linecap="round"></path>
                    <g id="Group-26" transform="translate(431.000000, 402.000000)">
                        <mask id="mask-16" fill="white">
                            <use xlink:href="#path-15"></use>
                        </mask>
                        <g id="Clip-25"></g>
                        <path d="M1.1461836,11.7399732 C-1.78883271,26.9079107 23.0537139,39.9404687 28.6999534,49.1188542 L28.6999534,49.1188542 L54.6750746,52.9250744 C54.6750746,52.9250744 54.4482572,35.0178571 43.1557782,14.8733616 L43.1557782,14.8733616 C37.4052027,4.61604762 27.3813886,0.0605714286 18.5385368,0.0605714286 L18.5385368,0.0605714286 C10.0147414,0.0605714286 2.58722973,4.29536607 1.1461836,11.7399732" id="Fill-24" fill="url(#linearGradient-17)" mask="url(#mask-16)"></path>
                    </g>
                    <path d="M446,414 C446,414 469.884682,419.466118 470,450" id="Stroke-27" stroke="#1DCEB4" stroke-width="1.093" stroke-linecap="round"></path>
                    <g id="Group-31" transform="translate(471.000000, 370.000000)">
                        <mask id="mask-19" fill="white">
                            <use xlink:href="#path-18"></use>
                        </mask>
                        <g id="Clip-30"></g>
                        <path d="M3.90059233,15.1075653 C-4.74758608,34.476729 3.44502409,66.0062778 10.5009991,80.1946501 L10.5009991,80.1946501 L55.7896628,84.9246101 C30.5277181,63.5274591 35.5343979,38.9805195 37.1281249,16.6847212 L37.1281249,16.6847212 C37.926512,5.50591228 31.7481534,0.270840156 24.2945085,0.272347628 L24.2945085,0.272347628 C16.8835254,0.272347628 8.21249242,5.45163158 3.90059233,15.1075653" id="Fill-29" fill="url(#linearGradient-20)" mask="url(#mask-19)"></path>
                    </g>
                    <path d="M492.90575,380 C492.90575,380 477.747928,395.038332 496,447" id="Stroke-32" stroke="#1DCEB4" stroke-width="1.093" stroke-linecap="round"></path>
                    <g id="Group-36" transform="translate(498.000000, 346.000000)">
                        <mask id="mask-22" fill="white">
                            <use xlink:href="#path-21"></use>
                        </mask>
                        <g id="Clip-35"></g>
                        <path d="M33.5657959,19.2214286 C15.7453878,32.1598052 5.1437551,39.6508442 1.49359184,62.1194026 L1.49359184,62.1194026 C-2.15808163,84.587961 9.20318367,99.1141948 20.7079184,114.090195 L20.7079184,114.090195 L57.926898,116.133896 C57.926898,116.133896 38.0767755,79.367026 41.1228571,58.9421688 L41.1228571,58.9421688 C44.1674286,38.5142727 77.7770204,14.6827403 73.0410204,4.01750649 L73.0410204,4.01750649 C71.8102041,1.24749351 69.7593469,0.0683766234 67.0832653,0.0683766234 L67.0832653,0.0683766234 C59.4552245,0.0698961039 46.7574286,9.64566234 33.5657959,19.2214286" id="Fill-34" fill="url(#linearGradient-23)" mask="url(#mask-22)"></path>
                    </g>
                    <path d="M561,358 C561,358 491.374641,390.096143 525.3347,456" id="Stroke-37" stroke="#1DCEB4" stroke-width="1.093" stroke-linecap="round"></path>
                    <g id="Group-41" transform="translate(538.000000, 380.000000)">
                        <mask id="mask-25" fill="white">
                            <use xlink:href="#path-24"></use>
                        </mask>
                        <g id="Clip-40"></g>
                        <path d="M16.1325,9.03865263 C-6.885,28.5104842 1.956,61.1120842 5.0925,79.6774737 L5.0925,79.6774737 L34.6035,89.9257263 C34.6035,89.9257263 26.217,73.3111579 32.4285,53.3876211 L32.4285,53.3876211 C38.64,33.4625684 63.7935,37.7916632 68.0505,21.7167158 L68.0505,21.7167158 C70.9125,10.9061053 56.856,0.0970105263 40.3395,0.0970105263 L40.3395,0.0970105263 C32.2965,0.0970105263 23.67,2.66172632 16.1325,9.03865263" id="Fill-39" fill="url(#linearGradient-26)" mask="url(#mask-25)"></path>
                    </g>
                    <g id="Group-115">
                        <path d="M595.57226,396.918708 C595.57226,396.918708 536.993626,389.117763 553.89891,452.205052" id="Stroke-42" stroke="#1DCEB4" stroke-width="1.093" stroke-linecap="round"></path>
                        <path d="M34.032428,591.721019 L606.0907,591.721019 C606.0907,591.721019 670.557333,462.153869 507.69386,447.00311 C344.830387,431.853864 375.366815,354.521107 229.469202,347.060781 C83.5700741,339.597427 13.6743045,459.215458 34.032428,591.721019" id="Fill-44" fill="#F98091"></path>
                        <path d="M463.646077,591.721019 C444.193567,558.255523 439.217238,511.221256 499.611641,488.610171 C560.007559,465.997572 554.578423,395.133559 651.844003,404.561909 C749.109584,413.991773 701.156003,563.682728 686.678308,591.721019 L463.646077,591.721019 Z" id="Fill-46" fill="#62A5E7"></path>
                        <path d="M469.240737,292.338654 L362.814532,292.338654 C361.125972,292.338654 359.75998,290.971634 359.75998,289.285189 C359.75998,287.600257 361.125972,286.233238 362.814532,286.233238 L469.240737,286.233238 L469.240737,292.338654 Z" id="Fill-48" fill="#FFFFFF"></path>
                        <path d="M498.645906,206.639674 L498.645906,286.234146 L519.00403,286.234146 L534.740194,209.33284 C535.023388,207.941598 533.960277,206.639674 532.541281,206.639674 L498.645906,206.639674 Z" id="Fill-50" fill="#C1C7D3"></path>
                        <path d="M515.864823,292.338654 L469.240889,292.338654 L469.240889,286.233238 L519.004181,286.233238 L519.004181,289.201926 C519.004181,290.933788 517.598815,292.338654 515.864823,292.338654" id="Fill-52" fill="#A9B2BF"></path>
                        <path d="M417.83977,206.639674 L530.472,206.639674 L514.184593,286.234146 L398.597761,286.234146 L414.291523,209.535698 C414.636807,207.849252 416.119407,206.639674 417.83977,206.639674" id="Fill-54" fill="#FFFFFF"></path>
                        <path d="M403.349505,280.119797 L417.31836,211.856604 C417.530377,210.816579 418.448105,210.070243 419.509702,210.070243 L523.528007,210.070243 C524.943974,210.070243 526.002542,211.366112 525.719348,212.752812 L511.750492,281.016005 C511.536961,282.05603 510.622262,282.80388 509.559151,282.80388 L405.540846,282.80388 C404.126393,282.80388 403.066311,281.506497 403.349505,280.119797" id="Fill-56" fill="#91B6E0"></path>
                        <line x1="364.284109" y1="302.288228" x2="349.860932" y2="591.721019" id="Stroke-58" stroke="#01004C" stroke-width="2.265" stroke-linecap="round" stroke-linejoin="round"></line>
                        <line x1="539.475733" y1="302.288228" x2="553.89891" y2="591.721019" id="Stroke-60" stroke="#01004C" stroke-width="2.265" stroke-linecap="round" stroke-linejoin="round"></line>
                        <line x1="359.480573" y1="398.667676" x2="544.434647" y2="398.667676" id="Stroke-62" stroke="#01004C" stroke-width="2.265" stroke-linecap="round" stroke-linejoin="round"></line>
                        <line x1="421.285643" y1="302.288228" x2="418.119026" y2="591.721019" id="Stroke-64" stroke="#01004C" stroke-width="1.133" stroke-linecap="round" stroke-linejoin="round"></line>
                        <mask id="mask-28" fill="white">
                            <use xlink:href="#path-27"></use>
                        </mask>
                        <g id="Clip-67"></g>
                        <polygon id="Fill-66" fill="#01004C" mask="url(#mask-28)" points="363.720296 314.499365 539.813597 314.499365 539.813597 306.583366 363.720296 306.583366"></polygon>
                        <path d="M552.651345,308.280862 L351.106983,308.280862 C346.704612,308.280862 343.133649,304.711169 343.133649,300.30885 C343.133649,295.908045 346.704612,292.338352 351.106983,292.338352 L552.651345,292.338352 C557.05523,292.338352 560.624678,295.908045 560.624678,300.30885 C560.624678,304.711169 557.05523,308.280862 552.651345,308.280862" id="Fill-68" fill="#62A5E7" mask="url(#mask-28)"></path>
                        <polygon id="Stroke-69" stroke="#FFFFFF" opacity="0.5" stroke-linecap="round" stroke-linejoin="round" mask="url(#mask-28)" points="93.7673086 207.955071 337.855802 207.955071 337.855802 103.125987 93.7673086 103.125987"></polygon>
                        <polygon id="Fill-70" fill="#FCD98E" mask="url(#mask-28)" points="120.684313 134.332797 182.097909 134.332797 182.097909 128.13352 120.684313 128.13352"></polygon>
                        <polygon id="Fill-71" fill="#91B6E0" mask="url(#mask-28)" points="120.684313 158.640924 315.663737 158.640924 315.663737 152.441648 120.684313 152.441648"></polygon>
                        <polygon id="Fill-72" fill="#91B6E0" mask="url(#mask-28)" points="120.684313 182.947538 315.663737 182.947538 315.663737 176.748262 120.684313 176.748262"></polygon>
                        <polygon id="Stroke-73" stroke="#FFFFFF" opacity="0.5" stroke-linecap="round" stroke-linejoin="round" mask="url(#mask-28)" points="553.624519 61.0493293 640.742083 61.0493293 640.742083 3.61481118 553.624519 3.61481118"></polygon>
                        <polygon id="Fill-74" fill="#FCD98E" mask="url(#mask-28)" points="621.030761 18.9914391 621.030761 16.2785933 616.110465 16.2785933 614.276523 16.2785933 613.396654 16.2785933 613.396654 41.3769585 575.734959 41.3769585 575.734959 44.0913182 582.010646 44.0913182 614.75356 44.0913182 621.030761 44.0913182 621.030761 41.3769585 616.110465 41.3769585 616.110465 18.9914391"></polygon>
                        <path d="M578.618534,47.4820726 C578.618534,49.3547234 580.137481,50.8746437 582.010797,50.8746437 C583.885629,50.8746437 585.404575,49.3547234 585.404575,47.4820726 C585.404575,45.6094218 583.885629,44.0910154 582.010797,44.0910154 C580.137481,44.0910154 578.618534,45.6094218 578.618534,47.4820726" id="Fill-75" fill="#FCD98E" mask="url(#mask-28)"></path>
                        <path d="M611.360842,47.4820726 C611.360842,49.3547234 612.879788,50.8746437 614.753105,50.8746437 C616.627937,50.8746437 618.146883,49.3547234 618.146883,47.4820726 C618.146883,45.6094218 616.627937,44.0910154 614.753105,44.0910154 C612.879788,44.0910154 611.360842,45.6094218 611.360842,47.4820726" id="Fill-76" fill="#FCD98E" mask="url(#mask-28)"></path>
                        <polygon id="Fill-77" fill="#FCD98E" mask="url(#mask-28)" points="610.173398 16.2778364 571.83325 16.2778364 575.734353 38.5785794 610.173398 38.5785794"></polygon>
                        <path d="M689.037834,172.589675 L626.642904,172.589675 C622.956846,172.589675 619.968928,169.60282 619.968928,165.918073 L619.968928,133.927081 C619.968928,130.242334 622.956846,127.255478 626.642904,127.255478 L689.037834,127.255478 C692.725406,127.255478 695.711809,130.242334 695.711809,133.927081 L695.711809,165.918073 C695.711809,169.60282 692.725406,172.589675 689.037834,172.589675" id="Fill-78" fill="#62A5E7" mask="url(#mask-28)"></path>
                        <polygon id="Fill-79" fill="#FCD98E" mask="url(#mask-28)" points="619.967868 143.01027 695.712263 143.01027 695.712263 137.866157 619.967868 137.866157"></polygon>
                        <polygon id="Fill-80" fill="#E4E9FF" mask="url(#mask-28)" points="628.384922 161.765541 638.784329 161.765541 638.784329 156.728913 628.384922 156.728913"></polygon>
                        <polygon id="Fill-81" fill="#E4E9FF" mask="url(#mask-28)" points="643.180642 161.765541 653.580049 161.765541 653.580049 156.728913 643.180642 156.728913"></polygon>
                        <polygon id="Fill-82" fill="#E4E9FF" mask="url(#mask-28)" points="657.974848 161.765541 679.094716 161.765541 679.094716 156.728913 657.974848 156.728913"></polygon>
                        <polygon id="Fill-84" fill="#E2697D" mask="url(#mask-28)" points="473.056428 143.613999 411.305119 143.613999 418.165366 64.0089304 464.480362 64.0089304"></polygon>
                        <path d="M420.427885,65.4222746 L450.060214,65.4222746 L450.060214,54.6253905 C450.060214,46.4444649 443.427128,39.813737 435.243292,39.813737 C427.060971,39.813737 420.427885,46.4444649 420.427885,54.6253905 L420.427885,65.4222746 Z" id="Stroke-85" stroke="#01004C" stroke-width="1.133" stroke-linecap="round" stroke-linejoin="round" mask="url(#mask-28)"></path>
                        <polygon id="Fill-86" fill="#F98091" mask="url(#mask-28)" points="461.238328 143.613999 399.485505 143.613999 406.347266 64.0089304 452.660747 64.0089304"></polygon>
                        <path d="M653.905264,321.290899 C653.905264,301.133159 637.565148,284.790899 617.407408,284.790899 C597.247524,284.790899 580.905264,301.133159 580.905264,321.290899 C580.905264,341.448639 597.247524,357.790899 617.407408,357.790899 C637.565148,357.790899 653.905264,341.448639 653.905264,321.290899 Z" id="Stroke-87" stroke="#FFFFFF" opacity="0.5" stroke-linecap="round" stroke-linejoin="round" mask="url(#mask-28)"></path>
                        <path d="M629.489496,335 C629.936975,335 630.313025,334.916603 630.619748,334.74981 C630.926471,334.585102 631.170168,334.374526 631.352941,334.120167 C631.533613,333.863723 631.672269,333.519712 631.768908,333.09022 C631.867647,332.660728 631.930672,332.239575 631.957983,331.824678 C631.985294,331.40978 632,330.905231 632,330.308946 L632,328.440864 C632,327.81956 631.985294,327.310842 631.957983,326.914708 C631.930672,326.522745 631.869748,326.120356 631.779412,325.709629 C631.689076,325.305155 631.554622,324.988249 631.382353,324.767248 C631.205882,324.546247 630.966387,324.362775 630.651261,324.218916 C630.338235,324.072972 629.951681,324 629.489496,324 C629.044118,324 628.663866,324.072972 628.348739,324.218916 C628.037815,324.362775 627.789916,324.548332 627.619748,324.779757 C627.441176,325.004928 627.310924,325.328089 627.220588,325.742987 C627.130252,326.157885 627.071429,326.560273 627.044118,326.945982 C627.014706,327.333776 627,327.838324 627,328.461713 L627,330.329795 C627,331.078279 627.029412,331.703753 627.084034,332.210387 C627.140756,332.714936 627.254202,333.194466 627.420168,333.651061 C627.588235,334.107657 627.840336,334.445413 628.182773,334.668499 C628.523109,334.8895 628.960084,335 629.489496,335 L629.489496,335 Z M628.977802,340 C626.194229,340 624.167592,339.232195 622.902331,337.698768 C621.63263,336.16534 621,333.892464 621,330.88014 L621,328.969353 C621,325.900316 621.614872,323.638347 622.846837,322.183444 C624.074362,320.728542 626.120977,320 628.977802,320 C631.836848,320 633.887902,320.70891 635.133185,322.120188 C636.376249,323.531465 637,325.747628 637,328.77304 L637,330.989203 C637,333.999346 636.36737,336.254772 635.099889,337.75548 C633.834628,339.249646 631.792453,340 628.977802,340 L628.977802,340 Z M610,340 L619.850755,304 L624,304 L614.14713,340 L610,340 Z M605.490542,319 C605.921396,319 606.293401,318.916619 606.610761,318.749858 C606.919714,318.583096 607.163514,318.374645 607.337957,318.118249 C607.5124,317.861853 607.655317,317.517908 607.758302,317.090582 C607.863388,316.661171 607.930643,316.23593 607.957966,315.814857 C607.985288,315.393784 608,314.883078 608,314.286905 L608,312.421262 C608,311.797991 607.985288,311.291453 607.957966,310.895395 C607.930643,310.503506 607.869693,310.103278 607.779319,309.703051 C607.688945,309.300739 607.552333,308.985977 607.371585,308.758764 C607.190836,308.531552 606.944935,308.34603 606.629676,308.208452 C606.31652,308.070874 605.936108,308 605.490542,308 C605.042875,308 604.660361,308.072958 604.351408,308.218874 C604.034048,308.364791 603.790248,308.548228 603.615805,308.767103 C603.441362,308.990146 603.308953,309.306993 603.220681,309.721812 C603.128205,310.138715 603.069357,310.538943 603.042034,310.926663 C603.01261,311.314383 603,311.818836 603,312.442107 L603,314.328596 C603,315.076938 603.027322,315.700208 603.081967,316.196324 C603.138714,316.696608 603.250105,317.178132 603.416141,317.640894 C603.584279,318.103657 603.836486,318.445518 604.18327,318.666477 C604.521648,318.887436 604.958806,319 605.490542,319 L605.490542,319 Z M605.978909,324 C603.192729,324 601.168031,323.232195 599.898155,321.698768 C598.632718,320.163158 598,317.890282 598,314.88014 L598,312.969353 C598,309.898135 598.612738,307.638347 599.842653,306.183444 C601.074788,304.728542 603.119467,304 605.978909,304 C608.836132,304 610.887471,304.70891 612.130706,306.126731 C613.376162,307.546734 614,309.769441 614,312.794852 L614,314.987021 C614,317.999346 613.367282,320.254772 612.097405,321.753299 C610.831969,323.251827 608.79173,324 605.978909,324 L605.978909,324 Z" id="Fill-88" fill="#FCD98E" mask="url(#mask-28)"></path>
                        <path d="M264.303809,338.918762 C286.471644,405.851268 285.538772,503.824059 278.752731,544.524315 L294.918986,549.0977 C294.918986,549.0977 335.329323,438.864118 319.949044,355.653024 L264.303809,338.918762 Z" id="Fill-89" fill="#33337C" mask="url(#mask-28)"></path>
                        <polygon id="Fill-90" fill="#E4E9FF" mask="url(#mask-28)" points="294.91944 549.0977 315.880296 576.036925 272.061037 561.026955 278.753185 544.524315"></polygon>
                        <polygon id="Fill-91" fill="#01004C" mask="url(#mask-28)" points="216.349472 349.264514 299.711315 349.264514 300.129291 358.255357 215.811858 358.255357"></polygon>
                        <line x1="216.349472" y1="347.060327" x2="204.587101" y2="591.720565" id="Stroke-92" stroke="#01004C" stroke-width="2.265" stroke-linecap="round" stroke-linejoin="round" mask="url(#mask-28)"></line>
                        <line x1="299.590617" y1="347.060327" x2="311.352988" y2="591.720565" id="Stroke-93" stroke="#01004C" stroke-width="2.265" stroke-linecap="round" stroke-linejoin="round" mask="url(#mask-28)"></line>
                        <line x1="306.52083" y1="491.21311" x2="209.418805" y2="491.21311" id="Stroke-94" stroke="#01004C" stroke-width="2.265" stroke-linecap="round" stroke-linejoin="round" mask="url(#mask-28)"></line>
                        <path d="M309.147411,352.147367 L206.791921,352.147367 C203.013485,352.147367 199.949847,349.084818 199.949847,345.306212 L199.949847,343.046011 C199.949847,339.267405 203.013485,336.20637 206.791921,336.20637 L309.147411,336.20637 C312.927361,336.20637 315.990999,339.267405 315.990999,343.046011 L315.990999,345.306212 C315.990999,349.084818 312.927361,352.147367 309.147411,352.147367" id="Fill-95" fill="#62A5E7" mask="url(#mask-28)"></path>
                        <path d="M287.181142,183.914746 C269.845768,145.927336 260.769949,79.1083696 314.505521,73.0029528 C314.505521,73.0029528 330.798986,60.1154214 349.86078,77.7519468 C368.92106,95.3884721 343.473027,139.143708 346.188352,172.043018 C348.902163,204.943843 384.867727,235.130308 361.795793,263.96035 C338.723858,292.790392 308.788649,285.366399 297.629011,243.290039 C286.470887,201.212166 287.181142,183.914746 287.181142,183.914746" id="Fill-96" fill="#01004C" mask="url(#mask-28)"></path>
                        <path d="M293.257231,473.911452 L305.470894,485.444074 C305.470894,485.444074 359.08077,461.702132 367.564458,408.111317 C376.045116,354.522015 338.722647,312.802928 313.615355,293.46936 L227.772919,291.09562 C227.772919,291.09562 217.253873,328.743925 255.933248,342.650287 C294.614137,356.555136 315.989939,345.363133 327.86589,386.064903 C339.740326,426.765159 293.257231,473.911452 293.257231,473.911452" id="Fill-97" fill="#282766" mask="url(#mask-28)"></path>
                        <polygon id="Fill-98" fill="#E4E9FF" mask="url(#mask-28)" points="305.4715 485.444377 311.579088 519.023413 279.685755 485.444377 293.257837 473.911755"></polygon>
                        <path d="M287.181142,138.07825 L300.891035,144.569702 L307.118262,131.14929 C307.118262,131.14929 326.734328,145.587019 336.46134,125.237648 C336.46134,125.237648 339.656731,126.507781 342.455348,125.237648 C342.455348,125.237648 340.16557,113.620249 344.236286,103.020168 C344.236286,103.020168 336.323529,88.4779819 327.695974,96.5756449 C322.169916,101.762146 316.752895,104.801986 314.717537,102.596285 C312.704895,100.41632 318.252155,95.163209 314.129949,90.8275001 C310.533241,87.0473796 304.015249,87.5620937 301.174229,91.8841778 C294.477537,102.070974 302.87036,106.807857 302.87036,106.807857 L287.181142,138.07825 Z" id="Fill-99" fill="#FFADB7" mask="url(#mask-28)"></path>
                        <path d="M329.675299,105.790389 C329.675299,105.790389 333.406788,105.676849 335.782887,109.635606" id="Stroke-103" stroke="#EF8998" stroke-width="0.566" stroke-linecap="round" mask="url(#mask-28)"></path>
                        <path d="M302.383631,96.1024108 C302.721343,95.2970347 303.178693,94.4553258 303.754166,93.5787981 C304.661294,92.1981534 306.278677,91.3746109 308.077788,91.3746109 C309.368059,91.3746109 310.555351,91.7954653 311.479137,92.5675364" id="Stroke-104" stroke="#EF8998" stroke-width="0.566" stroke-linecap="round" mask="url(#mask-28)"></path>
                        <path d="M306.322594,91.6554328 C306.322594,91.6554328 306.2075,94.2713913 307.508372,96.1031677" id="Stroke-105" stroke="#EF8998" stroke-width="0.566" stroke-linecap="round" mask="url(#mask-28)"></path>
                        <g id="Group-108" mask="url(#mask-28)">
                            <g transform="translate(300.800305, 126.599663)">
                                <mask id="mask-30" fill="white">
                                    <use xlink:href="#path-29"></use>
                                </mask>
                                <g id="Clip-107" stroke="none" fill="none"></g>
                                <path d="M4.13388384,9.25608109 L4.13388384,9.25608109 L6.31765339,4.54947531 C3.39939824,2.87665466 0.47205668,0.460526376 0.47205668,0.460526376 C0.47205668,0.460526376 -0.730379534,6.05425696 4.13388384,9.25608109" id="Fill-106" stroke="none" fill="none" mask="url(#mask-30)"></path>
                            </g>
                        </g>
                        <path d="M323.440955,301.704179 C294.275062,319.925056 273.736724,330.779467 218.271704,318.907739 C218.271704,318.907739 227.77307,265.996649 235.916016,216.137511 C244.058963,166.276858 262.040988,135.073076 289.185152,137.107711 C316.329317,139.143859 324.79786,197.143049 320.401547,235.130459 C316.00372,273.119383 323.440955,300.253897 323.440955,300.253897" id="Fill-109" fill="#FCD98E" mask="url(#mask-28)"></path>
                        <g id="Group-112" mask="url(#mask-28)">
                            <g transform="translate(278.650206, 158.955808)">
                                <mask id="mask-32" fill="white">
                                    <use xlink:href="#path-31"></use>
                                </mask>
                                <g id="Clip-111" stroke="none" fill="none"></g>
                                <path d="M18.9800165,0.266440212 C20.0355556,2.57357023 0.920757202,24.5745679 0.920757202,24.5745679 C0.695111111,51.7544973 10.5175309,102.125322 40.5648066,109.437289 L40.566321,109.437289 C40.1438025,99.8923714 40.3103868,88.6231615 41.7505844,76.174651 C44.1736296,55.240928 42.6789136,28.2426624 36.3153909,7.86906943 C25.9114403,2.85969068 18.6710782,-0.405715777 18.9800165,0.266440212" id="Fill-110" stroke="none" fill="none" mask="url(#mask-32)"></path>
                            </g>
                        </g>
                        <path d="M400.249672,274.249181 C400.249672,274.249181 384.415072,267.691118 358.854973,247.567313 C345.990117,237.438043 336.850693,218.487483 328.830413,198.981335 L292.728553,217.346029 C322.712224,264.257673 393.010825,286.234449 393.010825,286.234449 L428.750742,286.234449 C426.715384,271.761901 400.249672,274.249181 400.249672,274.249181" id="Fill-113" fill="#FFADB7" mask="url(#mask-28)"></path>
                        <path d="M305.853886,147.565035 C305.853886,147.565035 261.589393,153.500899 287.149491,207.318794 C288.794133,210.779489 290.668965,214.120589 292.728553,217.345121 C309.564174,212.64457 321.131187,205.549086 328.830413,198.98194 C320.916142,179.734663 314.089212,159.948449 305.853886,147.565035" id="Fill-114" fill="#FCD98E" mask="url(#mask-28)"></path>
                        <line x1="628.38477" y1="149.922274" x2="663.656737" y2="149.922274" id="Stroke-83" stroke="#E4E9FF" stroke-width="1.133" stroke-linecap="round" stroke-linejoin="round" mask="url(#mask-28)"></line>
                    </g>
                </g>
            </g>
        </g>
    </g>
</svg>